<?xml version="1.0" ?><svg xmlns="http://www.w3.org/2000/svg" id="Snail" viewBox="0 0 64 64"><defs><style>
      .cls-1 {
        stroke-width: 0px;
      }
    </style></defs><path class="cls-1" d="M58.02,17.69s0,0,0,0c.2-3.1,3.37-4.77,3.43-4.8.49-.25.69-.85.45-1.34-.25-.49-.85-.69-1.34-.45-.17.09-3.97,2.03-4.49,5.99,0,0,0,0,0,0-.34-.06-.7-.09-1.06-.09s-.72.03-1.06.09c0,0,0,0,0,0-.52-3.95-4.32-5.9-4.49-5.99-.49-.25-1.09-.05-1.34.45-.25.49-.05,1.09.44,1.34.03.02,3.23,1.68,3.43,4.8-1.72.81-3.04,2.31-3.64,4.14-3.18-7.53-10.66-12.83-19.34-12.83-11.58,0-21,9.42-21,21,0,6.32,2.8,11.99,7.24,15.85l-12.74,7.28c-.39.23-.58.69-.47,1.13.12.43.52.74.97.74h34c13.79,0,25-11.21,25-25v-6c0-2.78-1.63-5.19-3.98-6.31ZM29.62,48.99s0,0,0,0c4.88-1.35,10.76-4.51,11.38-11.91.45-5.37-1.24-9.76-4.74-12.35-3.06-2.26-7.43-2.94-10.63-1.66-3.9,1.56-8.87,6.37-6.58,13.25.87,2.62,2.77,4.4,5.33,5,3,.71,6.01-.3,7.32-1.61,1.86-1.85,2.45-4.68,1.47-7.04-.97-2.33-3.22-3.67-6.18-3.67-.55,0-1,.45-1,1s.45,1,1,1c2.14,0,3.68.86,4.33,2.43.66,1.59.23,3.59-1.04,4.86-.8.8-3.15,1.62-5.45,1.08-1.32-.31-3.07-1.21-3.9-3.69-1.85-5.56,2.23-9.48,5.42-10.75,2.12-.85,5.75-.77,8.7,1.42,2.07,1.53,4.43,4.61,3.94,10.57-.91,10.94-15.39,11.08-16,11.08-.02,0-.04.01-.05.01,0,0,0,0,0,0-7.52-2.53-12.94-9.65-12.94-18.01,0-10.48,8.52-19,19-19s19,8.52,19,19-8.19,18.66-18.38,18.99Z"/></svg>